<?xml version="1.0" standalone="no"?>
<!DOCTYPE svg PUBLIC "-//W3C//DTD SVG 20010904//EN"
 "http://www.w3.org/TR/2001/REC-SVG-20010904/DTD/svg10.dtd">
<svg version="1.0" xmlns="http://www.w3.org/2000/svg"
 width="469.000000pt" height="469.000000pt" viewBox="0 0 469.000000 469.000000"
 preserveAspectRatio="xMidYMid meet">
<metadata>
Created by potrace 1.11, written by Peter Selinger 2001-2013
</metadata>
<g transform="translate(0.000000,469.000000) scale(0.100000,-0.100000)"
fill="#000000" stroke="none">
<path d="M1109 4656 c-2 -2 -26 -7 -54 -10 -438 -58 -834 -394 -968 -821 -14
-44 -28 -93 -31 -110 -4 -16 -10 -41 -13 -55 -4 -14 -8 -594 -9 -1290 -2
-1370 -4 -1328 52 -1510 73 -237 239 -467 443 -613 78 -57 246 -147 272 -147
8 0 19 -4 25 -9 11 -11 113 -39 209 -57 56 -10 331 -12 1340 -11 699 2 1284 6
1300 10 161 43 232 65 271 85 11 5 44 22 74 37 105 53 196 121 295 220 165
165 255 322 323 564 l26 96 3 1260 c1 693 -2 1280 -6 1305 -5 25 -11 63 -14
85 -8 59 -54 199 -93 284 -102 221 -315 444 -529 553 -110 56 -228 98 -315
113 -25 4 -54 10 -65 13 -22 7 -2529 15 -2536 8z"/>
</g>
</svg>
